<?xml version="1.0" standalone="no"?>
<!DOCTYPE svg PUBLIC "-//W3C//DTD SVG 20010904//EN"
 "http://www.w3.org/TR/2001/REC-SVG-20010904/DTD/svg10.dtd">
<svg version="1.0" xmlns="http://www.w3.org/2000/svg"
 viewBox="0 0 1381.000000 185.000000" preserveAspectRatio="xMidYMid meet"
 class="responsive-svg">
<g transform="translate(0.000000,185.000000) scale(0.100000,-0.100000)"
fill="#7c00ff" stroke="none">
<path d="M2635 1839 c-215 -23 -419 -120 -571 -273 -314 -315 -361 -774 -117
-1144 50 -76 173 -198 252 -252 296 -199 664 -223 982 -64 199 99 358 266 439
462 28 65 69 227 70 270 0 9 -128 12 -605 12 l-605 0 0 -80 0 -80 501 0 500 0
-6 -22 c-68 -230 -302 -436 -559 -493 -106 -24 -300 -16 -401 15 -241 75 -431
259 -511 494 -109 320 21 686 312 876 283 185 656 167 913 -43 60 -48 144
-140 152 -166 3 -8 36 -11 107 -9 l102 3 -37 64 c-48 82 -179 215 -270 274
-191 125 -422 180 -648 156z"/>
<path d="M0 920 l0 -890 90 0 90 0 0 890 0 890 -90 0 -90 0 0 -890z"/>
<path d="M6980 920 l0 -890 85 0 85 0 0 410 0 410 350 0 350 0 0 75 0 75 -350
0 -350 0 0 330 0 330 365 0 365 0 0 75 0 75 -450 0 -450 0 0 -890z"/>
<path d="M918 1364 c-86 -20 -155 -60 -220 -124 l-58 -58 0 84 0 84 -85 0 -85
0 0 -660 0 -660 85 0 85 0 0 413 c0 444 4 487 54 585 31 62 112 137 184 170
51 24 68 27 172 27 110 0 119 -2 180 -32 110 -54 179 -139 218 -268 12 -40 16
-133 19 -472 l5 -423 79 0 80 0 -4 443 c-4 482 -4 480 -66 613 -40 85 -142
189 -230 233 -114 58 -284 77 -413 45z"/>
<path d="M4345 1365 c-257 -56 -471 -264 -529 -515 -22 -92 -20 -240 3 -332
91 -356 450 -580 804 -502 101 22 241 93 315 160 65 58 138 160 171 237 l20
47 -87 0 -87 0 -24 -53 c-47 -103 -184 -207 -316 -242 -77 -20 -197 -19 -266
1 -191 56 -350 228 -377 407 l-9 57 604 0 603 0 0 55 c0 64 -24 189 -48 249
-47 120 -153 256 -252 323 -157 106 -351 146 -525 108z m276 -151 c175 -52
311 -188 363 -363 9 -30 16 -58 16 -63 0 -4 -232 -8 -516 -8 l-517 0 7 41 c27
168 177 333 354 390 74 23 218 25 293 3z"/>
<path d="M5905 1360 c-255 -66 -451 -265 -511 -518 -22 -96 -15 -280 15 -365
97 -274 330 -455 612 -474 521 -35 892 524 658 990 -60 117 -134 201 -244 274
-156 103 -357 139 -530 93z m318 -154 c86 -31 149 -71 217 -140 105 -106 144
-205 145 -366 0 -60 -6 -126 -14 -155 -50 -180 -194 -327 -370 -379 -70 -21
-202 -21 -272 0 -170 50 -305 181 -365 354 -28 82 -26 262 5 349 56 159 189
291 345 341 90 28 221 27 309 -4z"/>
<path d="M8560 1359 c-295 -76 -492 -311 -525 -624 -17 -168 58 -379 182 -511
87 -93 181 -153 309 -196 100 -33 288 -33 388 0 292 98 476 334 493 632 9 152
-36 299 -131 433 -161 226 -453 335 -716 266z m323 -153 c166 -59 285 -182
342 -356 25 -74 25 -232 0 -315 -53 -181 -188 -317 -364 -369 -66 -19 -198
-21 -266 -2 -181 48 -333 201 -380 381 -32 126 -13 293 48 409 60 114 201 227
326 262 80 22 216 17 294 -10z"/>
<path d="M10062 1369 c-106 -21 -198 -85 -244 -172 l-23 -42 -3 98 -3 97 -84
0 -85 0 0 -660 0 -660 85 0 84 0 3 442 c3 436 3 444 26 500 13 31 44 80 69
108 60 67 126 100 246 125 27 5 27 6 27 90 l0 85 -27 -1 c-16 -1 -47 -5 -71
-10z"/>
<path d="M12279 1365 c-79 -21 -142 -58 -196 -114 l-53 -54 0 77 0 76 -80 0
-80 0 0 -660 0 -660 80 0 80 0 0 403 c0 221 5 434 10 472 14 95 66 202 122
247 79 63 111 73 233 73 96 0 116 -3 160 -24 102 -51 175 -155 195 -281 5 -37
10 -244 10 -477 l0 -413 79 0 80 0 3 448 c4 397 6 453 22 502 40 123 118 206
223 236 88 25 213 17 286 -20 102 -52 168 -151 187 -283 5 -37 10 -251 10
-475 l0 -408 80 0 80 0 0 438 c0 483 -4 519 -61 639 -94 197 -341 310 -571
262 -126 -27 -268 -118 -314 -204 -10 -19 -21 -35 -25 -35 -4 0 -12 13 -19 30
-18 43 -108 124 -178 159 -113 57 -258 76 -363 46z"/>
<path d="M10392 903 c5 -490 5 -496 68 -631 114 -244 512 -352 757 -206 72 44
106 76 141 134 l27 45 3 -107 3 -108 74 0 75 0 0 660 0 660 -79 0 -79 0 -4
-427 c-4 -374 -7 -435 -22 -481 -42 -130 -142 -235 -257 -272 -96 -31 -238
-26 -320 12 -107 49 -173 132 -207 258 -11 43 -16 151 -19 483 l-5 427 -80 0
-79 0 3 -447z"/>
</g>
</svg>
